<?xml version="1.0" encoding="utf-8"?>
<!-- Generator: Adobe Illustrator 28.4.1, SVG Export Plug-In . SVG Version: 6.00 Build 0)  -->
<svg version="1.0" id="katman_1" xmlns="http://www.w3.org/2000/svg" xmlns:xlink="http://www.w3.org/1999/xlink" x="0px" y="0px"
	 viewBox="0 0 100 100" style="enable-background:new 0 0 100 100;" xml:space="preserve">
<style type="text/css">
	.st0{fill:#333333;}
</style>
<g>
	<path class="st0" d="M96.61,33.04c0,0,0-0.1-0.1-0.1c-0.69-1.88-1.49-3.77-2.48-5.65c-0.1,0.6-0.2,1.39-0.3,2.08
		c-0.2,0.99-0.3,1.98-0.5,2.98c-0.2,0.99-0.3,1.79-0.5,2.58l-0.2,0.99c-0.2,0.79-0.4,1.49-0.6,2.18c-0.3,1.09-0.5,1.88-0.79,2.78
		l-0.3,0.99c-0.2,0.79-0.5,1.49-0.69,2.18c-0.2,0.69-0.6,1.69-0.89,2.58c-0.1,0.2-0.2,0.4-0.2,0.6c-0.2,0.5-0.4,1.19-0.69,1.79
		c-0.3,0.6-0.5,1.09-0.69,1.69c-0.5,1.19-1.09,2.38-1.69,3.57c-0.2,0.5-0.5,0.99-0.69,1.49c-0.4,0.79-0.79,1.59-1.29,2.38
		c-0.4,0.69-0.69,1.29-1.09,1.98l-0.2,0.4c-0.5,0.89-0.99,1.69-1.49,2.38c-0.6,0.89-1.19,1.88-1.79,2.78
		c-0.5,0.79-1.09,1.49-1.59,2.18c-0.5,0.69-1.19,1.59-1.79,2.38s-1.19,1.59-1.88,2.28c-1.29,1.49-2.58,2.98-3.97,4.36
		c-0.69,0.69-1.39,1.39-2.08,2.08h-0.3l-0.3,0.3l0.1,0.1c-0.5,0.5-1.09,0.99-1.59,1.49c-0.3,0.3-0.6,0.5-0.89,0.79
		c-0.5,0.5-1.09,0.99-1.69,1.39c-0.6,0.4-1.39,1.19-2.08,1.69c-0.99,0.79-1.79,1.29-2.58,1.88c-0.79,0.6-1.69,1.09-2.48,1.69
		c-0.5,0.4-1.09,0.69-1.69,1.09c-0.3,0.2-0.69,0.4-0.99,0.6c-0.5,0.3-1.19,0.69-1.79,1.09c-0.2,0.2-0.5,0.3-0.79,0.5l-0.2,0.1
		c-0.69,0.4-1.29,0.69-1.88,0.99c-0.3,0.2-0.69,0.4-0.99,0.6c-0.6,0.3-1.29,0.69-1.88,0.99c-0.79,0.4-1.69,0.79-2.58,1.19l-0.1,0.1
		l-2.18,0.99l-1.19,0.4c-0.69,0.3-1.49,0.6-2.18,0.89l-0.4,0.1h-0.1l0.6,0.2h0.1c3.87,0.99,7.83,1.49,11.9,1.49
		c27.37,0,49.59-22.22,49.59-49.59C99.59,44.25,98.6,38.5,96.61,33.04z M14.1,81.34l0.2-0.1l0.4-0.2
		c16.76-8.43,27.37-25.59,27.27-44.33c0-10.81-3.47-21.32-10.12-29.95c-0.3-0.4-0.6-0.79-0.89-1.19l-0.3-0.4l-0.6-0.69
		C15.09,11.02,4.28,24.51,1.21,40.68c-0.5,3.07-0.79,6.25-0.79,9.32c0,0.99,0,1.98,0.1,2.98c0.69,10.71,4.76,20.93,11.7,29.16
		C12.91,81.84,13.5,81.64,14.1,81.34z"/>
	<path class="st0" d="M32.15,96.02c1.29-0.4,2.58-0.79,3.77-1.29l0.2-0.1h0.2l0.3-0.1l0.5-0.2c1.59-0.6,3.17-1.29,4.76-1.98l0.6-0.3
		c1.59-0.69,3.07-1.39,4.66-2.18l0.4-0.2h0.1c1.59-0.89,3.17-1.79,4.66-2.78l0.2-0.1C73.6,73.31,87.69,50.99,90.76,26v-0.1v-0.3
		c0-0.2,0-0.5,0.1-0.69c0.1-0.79,0.2-1.59,0.2-2.38c0-0.1,0-0.2,0-0.3C84.12,11.82,73.41,4.48,61.21,1.6h-0.2
		c-9.12-2.08-18.74-1.49-27.57,1.59l0.1,0.2c0.3,0.4,0.6,0.79,0.89,1.19l0.1,0.2C41.57,14,45.34,25.21,45.34,36.81
		c0.1,19.93-11.21,38.38-29.16,47.31l-0.4,0.2l-0.2,0.1l-0.89,0.4c4.86,4.86,10.61,8.73,17.06,11.31L32.15,96.02z"/>
</g>
</svg>
