<?xml version="1.0" encoding="utf-8"?>
<!-- Generator: Adobe Illustrator 28.2.0, SVG Export Plug-In . SVG Version: 6.00 Build 0)  -->
<svg version="1.0" id="Layer_1" xmlns="http://www.w3.org/2000/svg" xmlns:xlink="http://www.w3.org/1999/xlink" x="0px" y="0px"
	 viewBox="0 0 600 600" style="enable-background:new 0 0 600 600;" xml:space="preserve">
<style type="text/css">
	.st0{fill:#4EBBDD;}
	.st1{fill:#1C75BC;}
</style>
<path id="color_x5F_2_7_" class="st0" d="M560.5,220l-90.7,62.5c-1.3-1.7-2.7-3.3-4.3-4.7c0,0-4.2-3.9-10-9.2l93.9-64.7
	c4.4-3.1,10.5-1.9,13.6,2.5C566.1,210.8,565,216.9,560.5,220z M508.5,105.1c-0.7-1.1-17.3-26.9-51.3-52.8
	C425.8,28.4,373.1,0,299.6,0c-55.8,0-111,17.4-156.6,49.6c-4.4,3.1-5.5,9.2-2.3,13.6c3.1,4.4,9.2,5.5,13.6,2.3
	c42.2-29.8,93.6-46.1,145.3-46.1c54.3,0,103.1,16.1,145.1,47.8c21,15.8,34.9,31.8,41.9,40.8l-46.9,34.3H295.4
	c4.9,3.6,16,11.6,26.9,19.5h120.6c2.1,0,4.1-0.7,5.8-1.9l57.3-41.9C510.2,115.2,511.3,109.4,508.5,105.1z M116.1,75.3
	c-6.8,0-12.4,5.5-12.4,12.4c0,6.8,5.5,12.4,12.4,12.4c6.8,0,12.4-5.5,12.4-12.4C128.5,80.8,123,75.3,116.1,75.3z M299.5,416.1
	l-23.3,23.2l-0.1,0.1c-6.6,6.8-17.5,6.9-24.3,0.3c-4.8-4.7-6.4-11.8-4.1-18.1l27.7-27.7c-1.5-1.4-2.4-2.2-2.4-2.2
	c-4.3-3.9-7.4-8.7-9.3-13.8l-27.1,26.8c-6.8,6.2-16.6,2.2-21.2-2.3c-4.8-4.7-4.8-12.7-0.3-19c0.6-0.4,32.4-32.3,32.4-32.3
	c3.8-3.8,3.8-10,0-13.8c-3.8-3.8-10-3.8-13.8,0c0,0-25.3,27.5-30.2,31.1c-5.1,5.1-15.4,2.4-19.9-2c-5.1-5-7.6-13.9-2.2-21l29.5-29.5
	c3.8-3.8,3.8-10,0-13.8c-3.8-3.8-10-3.8-13.8,0c-4.7,4.7-22,23.8-29.5,29.1c-4.1,2.9-15.1,3.4-20-3c-5.7-7.4-4.9-15.4,1.5-22.1
	l108.2-102.5l-8.1-5.1c-3.4-2.2-5-6.2-4.4-9.9L135.5,292.1l-0.3,0.3c-6.9,7-10.6,16.3-10.5,26.1c0.1,9.8,4,19,11.1,25.8
	c6.3,6.2,14.6,9.7,23.1,10.3c0.1,9.5,4,18.9,11,25.8c6.1,6,13.9,9.5,22,10.3c-0.1,9.9,3.7,19.6,11,26.8c6.6,6.5,15.2,10.1,24.1,10.4
	c0.2,9.5,4,18.8,11,25.7c14.3,14,37.9,13.7,51.9-0.5l23.9-23.7C311,426.7,305.5,421.6,299.5,416.1z"/>
<path id="color_x5F_1_7_" class="st1" d="M567.5,327.8c-7.1,47.8-24.2,92-50.7,131.2c-21.2,31.3-49.6,58.1-81,83.8
	C392.1,578.3,328,599.9,324.5,600c-5.2,0.2-9.7-1.8-9.7-9v-47.3c-4.9-0.2-10.7-0.5-15.1-0.5C149.9,543.2,28,421.4,28,271.6
	c0-3.4,1.8-6.6,4.7-8.3c2.9-1.8,6.5-1.9,9.5-0.4l84.6,43.1c-1.4,3.9-2,8.1-2,12.4c0,3.1,0.5,6.2,1.3,9.1l-78-39.8
	c8.4,131.5,118,235.9,251.6,235.9c9.5,0,24.8,0.9,25.4,1c5.1,0.3,9.2,4.6,9.2,9.8v42.7c18.1-7.1,53.5-22.9,90.3-50.4
	c30.7-23,56.3-49.6,76.2-79c24.8-36.7,40.7-77.9,47.4-122.7c0.8-5.3,5.8-9,11.1-8.2C564.6,317.5,568.2,322.5,567.5,327.8z
	 M353,231.1c13.5-14.8,10.9-36.3-3.6-49.4c-0.3-0.3-56.6-41.1-56.6-41.1c-1.7-1.2-3.7-1.9-5.7-1.9h-41.7c-1.3,0-2.6,0.3-3.9,0.8
	l-62.1,26.8l-92.3-49.7c-4.8-2.6-10.7-0.8-13.2,4c-2.6,4.8-0.8,10.7,4,13.2l96.4,52c2.6,1.4,5.8,1.6,8.5,0.4l64.6-27.9h36.5
	l52.7,38.2c10.5,10,4.9,18.4,2,21.5c-4.3,4.5-11.1,8.1-16.8,3.5c-0.3-0.2-62.1-39.5-62.1-39.5c-4.6-2.9-10.6-1.5-13.5,3
	c-2.9,4.6-1.5,10.6,3,13.5l60.8,38.6C323.4,247.4,342.7,242.6,353,231.1z M559.6,267.9c-6.8,0-12.4,5.5-12.4,12.4
	c0,6.8,5.5,12.4,12.4,12.4c6.8,0,12.4-5.5,12.4-12.4C572,273.5,566.4,267.9,559.6,267.9z M467.7,328c-6.3,6.8-15,11-24.2,11.5
	c-0.4,8.1-3.6,16.1-9.2,22.3c-6.5,7.1-15.6,11.3-25.2,11.5c-0.6,7.8-3.7,15.3-9.2,21.3c-6.2,6.8-14.9,10.9-24.1,11.5
	c-0.2,8.4-3.4,16.7-9.3,23.2c-13.1,14.3-36,15.4-50.2,2.2c0,0-43.2-39.8-43.2-39.8c-14.4-13.2-15.4-35.8-2.2-50.2
	c6.2-6.8,14.9-10.9,24.1-11.5c0.2-8.4,3.4-16.7,9.3-23.2c6.5-7.1,15.6-11.2,25.2-11.5c0.6-7.8,3.7-15.3,9.2-21.3
	c6.3-6.8,15-11,24.2-11.5c0.4-8.1,3.6-16.1,9.2-22.3c13.1-14.3,36-15.4,50.2-2.2c0,0,43.2,39.8,43.2,39.8c7,6.4,11.1,15.1,11.5,24.6
	C477.4,311.9,474.1,321,467.7,328z M355.3,399.9c0,0-53.8-49.7-54-49.9c-5.8-1.6-12.1,0.2-16.1,4.6c-6,6.5-5.5,16.7,1,22.6
	l43.2,39.8c6.4,5.9,16.7,5.4,22.6-1C356,411.6,357.2,405.4,355.3,399.9z M389.1,366.6c0,0-53.9-51.1-54.1-51.3
	c-5.8-1.7-12.3,0-16.4,4.5c-4.2,4.6-5.3,11-3.1,16.7l53.2,49.1c5.9,1.9,12.5,0.1,16.7-4.4C389.1,377.3,390.4,371.8,389.1,366.6z
	 M423.4,333.4c0,0-54.4-50.8-54.6-50.9c-5.7-1.4-11.8,0.3-15.8,4.7c-3.8,4.1-5.1,9.8-3.6,15.2l53.5,50.6c5.9,2,12.7,0.3,16.9-4.4
	C423.6,344.4,424.9,338.6,423.4,333.4z M452.3,292.1c0,0-43.2-39.8-43.2-39.8c-6.4-5.9-16.7-5.4-22.6,1c-3.9,4.2-5.1,10.3-3.4,15.7
	l53.9,50.2c5.8,1.7,12.2-0.1,16.3-4.5C459.2,308.3,458.7,298,452.3,292.1z"/>
</svg>
